<svg width="32" height="32" viewBox="0 0 32 32" fill="none" xmlns="http://www.w3.org/2000/svg">
<path d="M2.38248 18.0633H13.9367V29.6175C13.9367 30.9333 15.0034 32 16.3192 32C17.635 32 18.7017 30.9333 18.7017 29.6175V18.0633H29.6175C30.9333 18.0633 32 16.9966 32 15.6808C32 14.365 30.9333 13.2983 29.6175 13.2983H18.7017V2.38248C18.7017 1.06667 17.635 0 16.3192 0C15.0034 0 13.9367 1.06667 13.9367 2.38248V13.2983H2.38248C1.06667 13.2983 0 14.365 0 15.6808C0 16.9966 1.06667 18.0633 2.38248 18.0633Z" fill="black"/>
</svg>
